<svg xmlns="http://www.w3.org/2000/svg" xmlns:xlink="http://www.w3.org/1999/xlink" width="602.28" height="213.8" viewBox="0 0 602.28 213.8"><defs><filter id="a" x="0" y="0" width="602.28" height="213.8" filterUnits="userSpaceOnUse"><feOffset dy="3" input="SourceAlpha"/><feGaussianBlur stdDeviation="3" result="b"/><feFlood flood-opacity="0.161"/><feComposite operator="in" in2="b"/><feComposite in="SourceGraphic"/></filter></defs><g transform="matrix(1, 0, 0, 1, 0, 0)" filter="url(#a)"><path d="M-296.08,0h54.88l4.56-17.04h-3.84l-3.36,5.36c-4,6.4-5.52,7.12-19.04,7.12h-16.48l42.56-56.08h-27.28c-14.56,0-16.8-.32-20-3.04h-1.04l-6.16,20.16h3.84l3.36-5.36c4-6.4,5.52-7.12,19.04-7.12h11.52Zm76.88,0h20.96V-3.68l-2.88-.4c-5.12-.72-5.44-2.4-.16-15.92l.32-.88h20.32L-175.6-8c1.12,2.8.24,3.76-2.96,4l-3.84.32V0h27.44V-3.68L-158-4c-2.96-.32-3.68-1.36-4.72-4L-183.2-60.64h-7.68l-16,40.64c-5.68,14.4-6.08,15.36-10.16,16l-2.16.32Zm20.4-26.4,8.08-20.56,8,20.56ZM-108.16,0h19.44V-3.68l-3.84-.24c-2.32-.16-2.88-.72-4.56-2.72l-24.16-28.72,12.16-11.84c9.28-9.04,10.88-9.28,15.2-9.6l2.4-.16v-3.68h-23.92v3.68l3.28.16c3.68.16,3.68,1.84-1.76,7.6l-14.64,15.44a7.177,7.177,0,0,1-4.64,2.64V-52.24c0-3.04.64-4.16,3.84-4.4l3.84-.32v-3.68h-27.44v3.68l3.84.32c3.2.24,3.84,1.36,3.84,4.4V-8.4c0,3.04-.64,4.16-3.84,4.4l-3.84.32V0h27.44V-3.68L-129.36-4c-3.2-.24-3.84-1.36-3.84-4.4v-18l3.76-.16ZM-90,0h20.96V-3.68l-2.88-.4c-5.12-.72-5.44-2.4-.16-15.92l.32-.88h20.32L-46.4-8c1.12,2.8.24,3.76-2.96,4l-3.84.32V0h27.44V-3.68L-28.8-4c-2.96-.32-3.68-1.36-4.72-4L-54-60.64h-7.68L-77.68-20C-83.36-5.6-83.76-4.64-87.84-4L-90-3.68Zm20.4-26.4,8.08-20.56,8,20.56Zm45.84-34.24v3.68l3.84.32c3.2.24,3.84,1.44,3.84,4.48V-8.32c0,3.04-.64,4.08-3.84,4.32l-3.84.32V0H2.88c20.8,0,36.08-11.6,36.08-30.8S23.68-60.64,2.24-60.64ZM1.44-4.48C-3.28-4.48-4-5.28-4-9.92V-54.48c0-1.52.16-1.68,5.76-1.68,16,0,23.84,7.84,23.84,28.08,0,17.92-9.52,23.6-23.36,23.6ZM91.52-77.76H76.88L68.96-67.44h1.68L91.52-77.52ZM44.4,0H93.36l4.56-17.12H94.08l-3.36,5.36c-4,6.4-5.52,7.12-19.04,7.12h-.64c-6.16,0-6.88-.8-6.88-7.12v-16.4h8c5.2,0,6.24.56,7.28,5.52l.72,3.36H84V-41.92H80.16l-.72,3.36c-1.04,4.96-2.08,5.52-7.28,5.52h-8V-54.4c0-1.12.4-1.6,1.6-1.6H68.8c12.16,0,14.72.72,16.8,6.88l1.52,4.48h3.84L90.08-60.8l-23.04.16H44.4v3.68l3.84.32c3.2.24,3.84,1.36,3.84,4.4V-8.4c0,3.04-.64,4.16-3.84,4.4l-3.84.32ZM138,.64h1.6l20.24-48.16L161.68-8.4c.16,3.04-.64,4.16-3.84,4.4L154-3.68V0h27.44V-3.68L177.6-4c-3.2-.24-3.68-1.36-3.84-4.4l-2.24-44.24c-.16-3.04.64-3.76,3.84-4l3.84-.32v-3.68H159.84L142.48-17.68,123.6-60.64H104.08v3.68l3.84.32c3.2.24,4,.96,3.84,4L110.16-20c-.72,15.04-1.6,15.44-6.48,16l-2.96.32V0H122.8V-3.68L119.84-4c-4.16-.48-4.8-.96-4.56-16l.56-28Zm56.56-52.88V-8.4c0,3.04-.64,4.16-3.84,4.4l-3.84.32V0h27.44V-3.68L210.48-4c-3.2-.24-3.84-1.36-3.84-4.4V-52.24c0-3.04.64-4.16,3.84-4.4l3.84-.32v-3.68H186.88v3.68l3.84.32C193.92-56.4,194.56-55.28,194.56-52.24ZM220.72,0h48.96l4.56-17.12H270.4l-3.36,5.36c-4,6.4-5.52,7.12-19.04,7.12h-.64c-6.16,0-6.88-.8-6.88-7.12v-16.4h8c5.2,0,6.24.56,7.28,5.52l.72,3.36h3.84V-41.92h-3.84l-.72,3.36c-1.04,4.96-2.08,5.52-7.28,5.52h-8V-54.4c0-1.12.4-1.6,1.6-1.6h3.04c12.16,0,14.72.72,16.8,6.88l1.52,4.48h3.84L266.4-60.8l-23.04.16H220.72v3.68l3.84.32c3.2.24,3.84,1.36,3.84,4.4V-8.4c0,3.04-.64,4.16-3.84,4.4l-3.84.32ZM-283.64,56.36v3.68l3.84.32c3.2.24,3.84,1.44,3.84,4.48v43.84c0,3.04-.64,4.08-3.84,4.32l-3.84.32V117H-257c20.8,0,36.08-11.6,36.08-30.8s-15.28-29.84-36.72-29.84Zm25.2,56.16c-4.72,0-5.44-.8-5.44-5.44V62.52c0-1.52.16-1.68,5.76-1.68,16,0,23.84,7.84,23.84,28.08,0,17.92-9.52,23.6-23.36,23.6Zm75.84-57.84c-17.12,0-31.92,13.04-31.92,31.68,0,18.8,14.8,31.68,31.92,31.68s31.92-12.96,31.92-31.6C-150.68,67.64-165.48,54.68-182.6,54.68Zm-.64,4.72c11.52,0,19.2,11.04,19.2,29.6,0,18.32-9.44,24.32-17.92,24.32-11.52,0-19.2-10.96-19.2-29.52C-201.16,65.48-191.72,59.4-183.24,59.4Zm59.12,57.6h29.04v-3.84l-5.44-.16c-3.2-.08-3.84-1.36-3.84-4.4V62.68c0-1.68.32-1.84,4.64-1.84,9.52,0,14.08,3.36,14.08,12.96,0,8.32-5.28,12.16-13.6,12.16H-101v4.16h3.44c15.76,0,25.12-6.24,25.12-17.12,0-13.44-11.68-16.64-26.48-16.64h-25.2v3.68l3.84.32c3.2.24,3.84,1.36,3.84,4.4V108.6c0,3.04-.64,4.16-3.84,4.4l-3.84.32ZM-68.2,56.36v3.68l3.84.32c3.2.24,3.84,1.36,3.84,4.4V108.6c0,3.04-.64,4.16-3.84,4.4l-3.84.32V117h29.04v-3.76L-44.6,113c-3.2-.16-3.84-1.36-3.84-4.4V88.36h5.12l20,28.64H-5.64v-3.68l-2.4-.16c-2.16-.08-3.04-.4-5.92-4.24l-17.12-22.8c8.32-2.4,13.68-7.44,13.68-15.44,0-10.48-10.32-14.32-25.6-14.32Zm19.76,27.6V62.68c0-1.6.4-1.84,5.12-1.84,8.88,0,12.88,4.24,12.88,11.52,0,6.48-2.72,11.6-12.64,11.6Zm79.2-44.72H16.12L8.2,49.56H9.88L30.76,39.48ZM3.64,64.76V108.6c0,3.04-.64,4.16-3.84,4.4l-3.84.32V117H23.4v-3.68L19.56,113c-3.2-.24-3.84-1.36-3.84-4.4V64.76c0-3.04.64-4.16,3.84-4.4l3.84-.32V56.36H-4.04v3.68l3.84.32C3,60.6,3.64,61.72,3.64,64.76Zm26.16-8.4v3.68l3.84.32c3.2.24,3.84,1.36,3.84,4.4V108.6c0,3.04-.64,4.16-3.84,4.4l-3.84.32V117H58.84v-3.76L53.4,113c-3.2-.16-3.84-1.36-3.84-4.4V88.36h5.12l20,28.64H92.36v-3.68l-2.4-.16c-2.16-.08-3.04-.4-5.92-4.24L66.92,86.12c8.32-2.4,13.68-7.44,13.68-15.44C80.6,60.2,70.28,56.36,55,56.36Zm19.76,27.6V62.68c0-1.6.4-1.84,5.12-1.84,8.88,0,12.88,4.24,12.88,11.52,0,6.48-2.72,11.6-12.64,11.6Zm74.4-29.28c-17.12,0-31.92,13.04-31.92,31.68,0,18.8,14.8,31.68,31.92,31.68s31.92-12.96,31.92-31.6C155.88,67.64,141.08,54.68,123.96,54.68Zm-.64,4.72c11.52,0,19.2,11.04,19.2,29.6,0,18.32-9.44,24.32-17.92,24.32-11.52,0-19.2-10.96-19.2-29.52C105.4,65.48,114.84,59.4,123.32,59.4Zm38.16-3.04v3.68l3.84.32c3.2.24,3.84,1.44,3.84,4.48v43.84c0,3.04-.64,4.08-3.84,4.32l-3.84.32V117h26.64c20.8,0,36.08-11.6,36.08-30.8s-15.28-29.84-36.72-29.84Zm25.2,56.16c-4.72,0-5.44-.8-5.44-5.44V62.52c0-1.52.16-1.68,5.76-1.68,16,0,23.84,7.84,23.84,28.08,0,17.92-9.52,23.6-23.36,23.6ZM240.92,117h29.04v-3.76l-4.64-.4c-3.2-.24-3.84-1.6-3.84-4.64V91.08l9.44-14.72C279,63.48,281.16,60.6,286.04,60.2l2.16-.16V56.36h-22v3.68l2.56.16c5.44.32,4.16,3.84-3.28,16.16l-6.24,10.32L245.8,64.36c-1.52-2.56-.88-3.76,2.32-4l4.56-.32V56.36H224.6v3.68l3.04.32c2.96.32,3.76,1.36,5.36,4l16.4,26.88V108.2c0,3.04-.64,4.4-3.84,4.64l-4.64.4Z" transform="translate(305.08 83.76)" fill="#fff"/></g></svg>